<?xml version="1.0"?>
<svg xmlns="http://www.w3.org/2000/svg" version="1.1" width="512" height="512" x="0" y="0" viewBox="0 0 512 512" style="enable-background:new 0 0 512 512" class="">
	<g transform="matrix(0.8999999999999999,0,0,0.8999999999999999,25.600000000000023,25.59999923706053)">
			<path d="M117.333,128h384c5.896,0,10.667-4.771,10.667-10.667c0-5.896-4.771-10.667-10.667-10.667h-384     c-5.896,0-10.667,4.771-10.667,10.667C106.667,123.229,111.438,128,117.333,128z" fill="#495dfb" data-original="#000000" style="" class=""/>
			<path d="M501.333,245.333h-384c-5.896,0-10.667,4.771-10.667,10.667s4.771,10.667,10.667,10.667h384     c5.896,0,10.667-4.771,10.667-10.667S507.229,245.333,501.333,245.333z" fill="#495dfb" data-original="#000000" style="" class=""/>
			<path d="M501.333,384h-384c-5.896,0-10.667,4.771-10.667,10.667s4.771,10.667,10.667,10.667h384     c5.896,0,10.667-4.771,10.667-10.667S507.229,384,501.333,384z" fill="#495dfb" data-original="#000000" style="" class=""/>
			<path d="M53.333,85.333H10.667C4.771,85.333,0,90.104,0,96v42.667c0,5.896,4.771,10.667,10.667,10.667h42.667     c5.896,0,10.667-4.771,10.667-10.667V96C64,90.104,59.229,85.333,53.333,85.333z M42.667,128H21.333v-21.333h21.333V128z" fill="#495dfb" data-original="#000000" style="" class=""/>
			<path d="M53.333,224H10.667C4.771,224,0,228.771,0,234.667v42.667C0,283.229,4.771,288,10.667,288h42.667     C59.229,288,64,283.229,64,277.333v-42.667C64,228.771,59.229,224,53.333,224z M42.667,266.667H21.333v-21.333h21.333V266.667z" fill="#495dfb" data-original="#000000" style="" class=""/>
			<path d="M53.333,362.667H10.667C4.771,362.667,0,367.438,0,373.333V416c0,5.896,4.771,10.667,10.667,10.667h42.667     C59.229,426.667,64,421.896,64,416v-42.667C64,367.438,59.229,362.667,53.333,362.667z M42.667,405.333H21.333V384h21.333     V405.333z" fill="#495dfb" data-original="#000000" style="" class=""/>
	</g>
</svg>
